<?xml version="1.0" encoding="UTF-8"?><svg id="Layer_1" xmlns="http://www.w3.org/2000/svg" viewBox="0 0 512 512"><defs><style>.cls-1{fill:#fff;}</style></defs><path d="M301.61,444.12c15.04-11.33,28.09-25.77,38.1-43.06h.04c19.98,0,39.03-4.06,56.37-11.4,15.97-6.76,30.38-16.4,42.83-28.11,3.99-17.02,4.99-34.31,2.85-51.22-2.39-18.89-8.52-37.29-18.33-54.27,0,0-.01-.02-.02-.03l.02-.03c9.8-16.98,15.93-35.39,18.33-54.27,2.14-16.92,1.14-34.2-2.85-51.22-12.45-11.71-26.86-21.36-42.83-28.12-17.34-7.34-36.39-11.4-56.37-11.4-.02,0-.03,0-.05,0-9.85-17.02-22.8-31.54-38.03-43.05-13.6-10.28-29.09-18.04-45.84-23.06-16.43,4.98-32.04,12.73-45.91,23.28-14.86,11.3-27.77,25.64-37.67,42.79,0,.02-.01.03-.02.04-19.91.03-38.89,4.08-56.17,11.39-16.05,6.79-30.53,16.5-43.03,28.29-2.58,11.02-3.94,22.15-3.94,33.23,0,6.05.4,12.08,1.16,18.07,2.39,18.78,8.49,37.08,18.21,53.98l-.27.62c-9.57,16.77-15.57,34.91-17.94,53.51-.76,5.99-1.16,12.02-1.16,18.08,0,11.08,1.36,22.21,3.94,33.23,12.49,11.79,26.98,21.49,43.02,28.28,17.27,7.31,36.24,11.36,56.14,11.39l.26.41c9.88,17,22.73,31.21,37.49,42.43,13.84,10.52,29.4,18.27,45.79,23.25,16.41-4.91,32-12.57,45.87-23.01"/><path class="cls-1" d="M337.45,143.55c26.64,0,51.1,9.35,70.39,24.89,3.25,20.99.47,42.25-8.12,61.95-39.85-42.67-102.94-56.75-157.61-33.74,19.89-31.82,55.14-53.1,95.34-53.1"/><path class="cls-1" d="M300.81,214.33c47.14,35.91,66.41,97.58,49.29,153.39,21.72-2.44,41.56-11.09,57.75-24.13,3.92-25.24-.79-50.84-13.74-73.25-20.04-34.71-55.93-54.58-93.3-56.01"/><path class="cls-1" d="M188.08,214.57c2.26,8.43,5.53,16.39,9.53,23.9,7.36-58.92,51.13-106.58,108.07-119.76-13.01-17.58-30.46-30.41-49.88-37.88-22.99,8.96-43.22,25.43-56.49,48.4-15.02,26.01-19.02,56.32-11.23,85.34"/><path class="cls-1" d="M312.75,382.62c20.06-34.76,19.3-75.83,1.79-108.93-7.41,58.93-51.26,106.59-108.25,119.68,12.92,17.51,30.24,30.33,49.52,37.84,23.18-8.92,43.58-25.47,56.94-48.6"/><path class="cls-1" d="M186.24,294.29c8.47,2.27,17.04,3.41,25.59,3.7-25.07-18.84-43.11-45.24-51.36-76.01-3.26-12.15-4.87-24.49-4.87-36.74,0-13.86,2.13-27.6,6.21-40.88-21.65,2.49-41.44,11.14-57.58,24.17-3.95,25.26.76,50.91,13.73,73.36,15.02,26.02,39.27,44.63,68.29,52.41"/><path class="cls-1" d="M269.95,315.58c-28.75,12.14-60.48,14.51-91.1,6.31-25.97-6.96-48.8-20.94-66.65-40.18-8.49,19.5-11.25,40.77-7.97,61.8,19.31,15.58,43.82,24.97,70.5,24.97,40.13,0,75.31-21.19,95.22-52.9"/><path class="cls-1" d="M255.98,288.12c-5.84,0-11.25-1.69-15.98-4.42l.04-.07c-1.25-.72-2.39-1.56-3.61-2.33-7.58-5.88-12.55-14.96-12.55-25.28h.23c0-1.5.17-2.97.22-4.46,1.4-9.95,7.32-18.37,15.67-23.22l.04.07c1.46-.84,2.97-1.51,4.45-2.28,3.58-1.38,7.43-2.22,11.49-2.22,6.52,0,12.58,1.98,17.65,5.34.15.09.29.2.44.29,8.44,5.79,14,15.49,14,26.48,0,17.7-14.4,32.1-32.1,32.1"/></svg>