<?xml version="1.0" encoding="UTF-8"?><svg id="Layer_1" xmlns="http://www.w3.org/2000/svg" viewBox="0 0 512 512"><defs><style>.cls-1{fill:#fff;}</style></defs><path class="cls-1" d="M336.62,144.64c26.37,0,50.6,9.26,69.7,24.64,3.22,20.78.47,41.83-8.04,61.34-39.46-42.25-101.93-56.19-156.06-33.4,19.69-31.51,54.59-52.58,94.41-52.58Z"/><path class="cls-1" d="M300.34,214.72c46.68,35.56,65.75,96.62,48.8,151.88,21.5-2.42,41.15-10.98,57.18-23.89,3.88-24.99-.79-50.34-13.6-72.53-19.84-34.37-55.38-54.05-92.38-55.46Z"/><path class="cls-1" d="M188.72,214.96c2.24,8.34,5.47,16.23,9.44,23.67,7.29-58.34,50.63-105.53,107-118.58-12.88-17.4-30.16-30.11-49.39-37.51-22.76,8.87-42.79,25.18-55.93,47.93-14.87,25.76-18.83,55.76-11.12,84.5Z"/><path class="cls-1" d="M312.17,381.35c19.86-34.42,19.11-75.08,1.77-107.85-7.34,58.35-50.75,105.53-107.19,118.5,12.79,17.33,29.94,30.03,49.03,37.47,22.95-8.83,43.15-25.22,56.38-48.12Z"/><path class="cls-1" d="M186.9,293.89c8.38,2.24,16.87,3.38,25.33,3.66-24.82-18.65-42.69-44.8-50.85-75.26-3.23-12.03-4.82-24.25-4.82-36.38,0-13.72,2.11-27.33,6.15-40.48-21.44,2.47-41.03,11.03-57.01,23.93-3.91,25.01.75,50.41,13.59,72.64,14.88,25.76,38.89,44.19,67.62,51.89Z"/><path class="cls-1" d="M269.78,314.98c-28.46,12.03-59.88,14.37-90.2,6.25-25.72-6.89-48.32-20.73-65.99-39.78-8.4,19.31-11.14,40.37-7.89,61.19,19.11,15.43,43.38,24.72,69.8,24.72,39.73,0,74.57-20.98,94.28-52.38Z"/><path class="cls-1" d="M255.95,287.78c-5.79,0-11.14-1.67-15.82-4.38l.04-.07c-1.24-.71-2.37-1.55-3.58-2.3-7.5-5.82-12.43-14.82-12.43-25.03h.22c0-1.49.17-2.94.22-4.41,1.39-9.85,7.25-18.19,15.52-22.99l.04.07c1.44-.83,2.94-1.49,4.41-2.25,3.54-1.37,7.36-2.2,11.37-2.2,6.46,0,12.46,1.96,17.48,5.29.15.09.29.19.44.28,8.36,5.73,13.86,15.34,13.86,26.22,0,17.52-14.26,31.78-31.78,31.78Z"/></svg>